<svg width="135" height="135" viewBox="0 0 135 135" fill="none" xmlns="http://www.w3.org/2000/svg">
<path fill-rule="evenodd" clip-rule="evenodd" d="M4.3875 0H105.3C107.727 0 109.688 1.96066 109.688 4.3875V25.3125H99.8156V9.87188H9.87188V99.8156H25.3125V109.688H4.3875C1.96066 109.688 0 107.727 0 105.3V4.3875C0 1.96066 1.96066 0 4.3875 0ZM35.1844 109.688V125.128H79.0594C79.6627 125.128 80.1562 125.622 80.1562 126.225V133.903C80.1562 134.506 79.6627 135 79.0594 135H29.7C27.2732 135 25.3125 133.039 25.3125 130.613V109.688H35.1844ZM35.1844 99.8156H25.3125V29.7C25.3125 27.2732 27.2732 25.3125 29.7 25.3125H99.8156V35.1844H35.1844V99.8156ZM35.1844 99.8156H53.7469C54.3502 99.8156 54.8438 100.309 54.8438 100.913V108.591C54.8438 109.194 54.3502 109.688 53.7469 109.688H35.1844V99.8156ZM99.8156 35.1844H109.688V53.7469C109.688 54.3502 109.194 54.8438 108.591 54.8438H100.913C100.309 54.8438 99.8156 54.3502 99.8156 53.7469V35.1844ZM109.688 35.1844V25.3125H130.613C133.039 25.3125 135 27.2732 135 29.7V79.0594C135 79.6627 134.506 80.1562 133.903 80.1562H126.225C125.622 80.1562 125.128 79.6627 125.128 79.0594V35.1844H109.688Z" fill="white"/>
<path d="M75.2277 75.2276C74.4008 76.0336 73.8441 77.076 73.634 78.2114C73.4239 79.3468 73.5709 80.5194 74.0546 81.5679L94.2208 126.062C94.7009 127.195 95.5416 128.137 96.6123 128.743C97.683 129.35 98.9238 129.585 100.142 129.414C101.489 129.285 102.759 128.727 103.765 127.822C104.771 126.917 105.459 125.712 105.728 124.386L108.885 108.801L124.47 105.644C125.796 105.375 127.001 104.687 127.906 103.681C128.811 102.675 129.369 101.405 129.498 100.058V99.36C129.518 98.2555 129.21 97.1699 128.614 96.2402C128.017 95.3105 127.158 94.5786 126.146 94.1369L81.568 74.0545C80.5196 73.5708 79.3469 73.4238 78.2115 73.6339C77.0761 73.844 76.0337 74.4007 75.2277 75.2276Z" fill="white"/>
</svg>
